<svg width="800" height="300" xmlns="http://www.w3.org/2000/svg" version="1.1">

 <g>
  <title>Layer 1</title>
  <path id="svg_1" stroke-linecap="round" stroke="#f0a028" stroke-width="25" fill="none" d="m38.11661,222.86654c10.3139,-7.7728 41.40508,-46.33782 61.88341,-46.63677c20.47832,-0.29895 40.6577,45.142 60.98655,44.84305c20.32885,-0.29895 39.61136,-48.13153 60.98654,-46.63677c21.37519,1.49477 46.4873,56.95068 67.26458,55.60538c20.77728,-1.34529 31.68909,-64.42452 57.39911,-63.67714c25.71001,0.74739 72.64574,68.31092 96.86099,68.16144c24.21524,-0.14947 27.35425,-69.35724 48.43048,-69.05829c21.07623,0.29896 54.55905,71.30045 78.02692,70.85202c23.46786,-0.44843 39.46189,-73.69208 62.78027,-73.5426c23.31838,0.14948 55.60535,73.69207 77.13,74.43945c21.52466,0.74739 43.34829,-58.29596 52.01795,-69.95515"/>
 </g>
</svg>