<svg xmlns="http://www.w3.org/2000/svg" version="1.1" xmlns:xlink="http://www.w3.org/1999/xlink" xmlns:svgjs="http://svgjs.dev/svgjs" viewBox="0 0 800 400"><path d="M9.417040824890137,218.83407592773438C19.73094161351522,211.0612818400065,50.82211860020955,172.4962641398112,71.30044555664062,172.1973114013672C91.7787725130717,171.8983586629232,111.9581527709961,217.3393122355143,132.28700256347656,217.0403594970703C152.61585235595703,216.7414067586263,171.8983586629232,168.90882619222006,193.27354431152344,170.40359497070312C214.6487299601237,171.8983637491862,239.76083628336588,227.35426584879556,260.5381164550781,226.00897216796875C281.31539662679035,224.66367848714194,292.2272084554036,161.5844497680664,317.9372253417969,162.3318328857422C343.6472422281901,163.07921600341797,390.5829722086589,230.6427459716797,414.7982177734375,230.49327087402344C439.0134633382161,230.3437957763672,442.1524658203125,161.13602701822916,463.22869873046875,161.4349822998047C484.304931640625,161.73393758138022,517.7877502441406,232.73543294270834,541.255615234375,232.28700256347656C564.7234802246094,231.83857218424478,580.7175089518229,158.5949249267578,604.035888671875,158.74440002441406C627.3542683919271,158.8938751220703,659.6412353515625,232.43647003173828,681.1658935546875,233.18385314941406C702.6905517578125,233.93123626708984,724.5141805013021,174.8878911336263,733.183837890625,163.22869873046875" fill="none" stroke-width="25" stroke="#f0a028" stroke-linecap="round" transform="matrix(1,0,0,1,28.69956684112549,4.0324554443359375)"></path><defs><linearGradient id="SvgjsLinearGradient1014"><stop stop-color="hsl(37, 99%, 67%)" offset="0"></stop><stop stop-color="hsl(316, 73%, 52%)" offset="1"></stop></linearGradient></defs></svg>